<svg width="1440" height="508" viewBox="0 0 1440 508" fill="none" xmlns="http://www.w3.org/2000/svg">
<g clip-path="url(#clip0_117_2196)">
<rect width="1440" height="508" fill="white"/>
<path d="M754 0H1807V140.832L1614.64 411L1051.35 188.974L842.133 48.8601L754 0Z" fill="#1F989E"/>
<path d="M1438.86 212.774L1442.5 210.914V215V508V510.5H1440L867 510.5L865.862 505.774L1438.86 212.774Z" fill="#1F4A50" stroke="#C1A058" stroke-width="5"/>
<path d="M1235.02 215.592L1238.51 217.203L1235.62 219.738L1078.93 357.531L1077.05 359.182L1075.4 357.304L763.927 3.1009L766.853 -0.819271L1235.02 215.592Z" fill="#1F4A50" stroke="#C1A058" stroke-width="5"/>
<path d="M-96.6929 241.153L-101.196 243.913L-100.476 238.681L-49.6908 -130.306L-49.3499 -132.782L-46.8733 -132.441L403.342 -70.4766L410.271 -69.5229L404.307 -65.8684L-96.6929 241.153Z" fill="#1F989E" stroke="#C1A058" stroke-width="5"/>
</g>
<defs>
<clipPath id="clip0_117_2196">
<rect width="1440" height="508" fill="white"/>
</clipPath>
</defs>
</svg>
