<svg width="390" height="198" viewBox="0 0 390 198" fill="none" xmlns="http://www.w3.org/2000/svg">
<g clip-path="url(#clip0_118_2618)">
<mask id="path-1-inside-1_118_2618" fill="white">
<path d="M0 0H390V198H0V0Z"/>
</mask>
<path d="M0 0H390V198H0V0Z" fill="white"/>
<path d="M257.5 -2.99986L256.539 1.80809L391.039 57.8079L394.5 59.2489L394.5 55.4999L394.5 -0.499832L394.5 -2.99983L392 -2.99984L257.5 -2.99986Z" fill="#1F989E" stroke="#C1A058" stroke-width="5"/>
<path d="M234.059 -3.42409L236.958 -7.30923L392.458 57.1908L394 57.8305L394 59.5L394 186.5L394 193.545L389.559 188.076L234.059 -3.42409Z" fill="#1F4A50" stroke="#C1A058" stroke-width="5"/>
<path d="M161.955 0.000492947L171.302 -0.170501L163.288 4.64323L-0.712633 103.143L-4.49984 105.418L-4.49984 101L-4.49976 5.50005L-4.49975 3.04537L-2.04548 3.00048L161.955 0.000492947Z" fill="#1F989E" stroke="#C1A058" stroke-width="5"/>
</g>
<path d="M0 5H390V-5H0V5Z" fill="#C1A058" mask="url(#path-1-inside-1_118_2618)"/>
<defs>
<clipPath id="clip0_118_2618">
<path d="M0 0H390V198H0V0Z" fill="white"/>
</clipPath>
</defs>
</svg>
